<?xml version="1.0" encoding="UTF-8"?>
<svg id="Livello_1" xmlns="http://www.w3.org/2000/svg" version="1.1" viewBox="0 0 500 500">
  <!-- Generator: Adobe Illustrator 29.4.0, SVG Export Plug-In . SVG Version: 2.1.0 Build 152)  -->
  <defs>
    <style>
      .st0 {
        fill: #101010;
      }

      .st0, .st1, .st2, .st3, .st4, .st5, .st6, .st7, .st8, .st9, .st10, .st11 {
        fill-rule: evenodd;
      }

      .st1 {
        fill: #111;
      }

      .st2 {
        fill: #fffde6;
      }

      .st3 {
        fill: #7d7d7d;
      }

      .st4 {
        fill: #7b7b7b;
      }

      .st5 {
        fill: #8f8f8f;
      }

      .st6 {
        fill: #040404;
      }

      .st7 {
        fill: #737373;
      }

      .st8 {
        fill: #7c7c7c;
      }

      .st9 {
        fill: #050505;
      }

      .st10 {
        fill: #161616;
      }

      .st11 {
        fill: #292929;
      }
    </style>
  </defs>
  <path class="st2" d="M.55,0h500v500H.55V0Z"/>
  <path class="st11" d="M231.5,41.5c78.46-3.34,141.29,25.99,188.5,88,43.1,65.5,49.43,134.5,19,207-33.46,67.68-87.63,107.51-162.5,119.5-90.41,7.38-159.57-27.12-207.5-103.5-27.83-51.47-34.16-105.47-19-162C80.35,103.97,140.85,54.31,231.5,41.5Z"/>
  <path class="st2" d="M234.5,46.5c89.13-2.21,154.96,35.46,197.5,113,25.8,56.41,27.14,113.41,4,171-34.38,72.3-91.54,112.8-171.5,121.5-71.81,3-130.31-23.17-175.5-78.5-39.99-55.17-51.32-115.84-34-182,22.77-67.77,67.93-113.27,135.5-136.5,14.59-4.04,29.25-6.87,44-8.5Z"/>
  <path class="st9" d="M233.5,56.5c81.82-2.85,143.66,30.48,185.5,100,29.2,57.02,31.2,115.02,6,174-30.61,61.91-80.11,98.74-148.5,110.5-69.73,7.53-127.9-14.64-174.5-66.5-42.49-53.53-55.16-113.53-38-180,28.31-80.72,84.81-126.72,169.5-138Z"/>
  <path class="st2" d="M230.5,70.5c77.74-4.06,136.57,26.94,176.5,93,28.65,57.32,28.65,114.66,0,172-39.62,65.9-98.12,96.73-175.5,92.5-76.81-11.15-127.98-53.32-153.5-126.5-19.08-72.63-1.58-134.8,52.5-186.5,28.84-24.92,62.17-39.75,100-44.5Z"/>
  <path class="st6" d="M177.5,240.5c-.83,5.82-1.33,11.82-1.5,18-1.97,6.23-3.47,12.56-4.5,19,1.05,11.86,4.55,12.86,10.5,3,1.55-2.02,3.39-2.35,5.5-1,5.26,16.83,15.93,22,32,15.5,8-4.67,16-9.33,24-14,15.65-2.26,26.48,3.91,32.5,18.5,2.58,22-3.08,41.66-17,59-4.26,6.27-9.76,11.1-16.5,14.5-20.82,3.51-35.99-3.99-45.5-22.5-.17-10.68-.67-21.35-1.5-32-.59.21-1.09.54-1.5,1-.83,11.37-.49,22.71,1,34,2.34,8.19,7.17,14.36,14.5,18.5,7.24,3.69,14.9,5.86,23,6.5,12.26-1.38,22.09-7.05,29.5-17,2.91-3.49,5.58-7.16,8-11,4.99-11.32,8.99-22.98,12-35,3.95-6.28,8.28-12.28,13-18,7.73-12.99,8.39-26.32,2-40-3.57-4.53-8.07-7.7-13.5-9.5-13.88-1.38-27.54-.38-41,3-4.33.67-8.67.67-13,0-2.36-.2-4.03-1.36-5-3.5,8.4.17,10.07-3,5-9.5-1.33-.67-2.67-.67-4,0-5.02,5.4-6.69,4.57-5-2.5-.5-.33-1-.67-1.5-1-1.86,1.7-4.03,2.7-6.5,3-.62-1.82-.78-3.82-.5-6-1.87,1.72-4.04,2.72-6.5,3,.55-1.83.55-3.5,0-5-2.05,2.22-4.38,2.89-7,2,.54-1.25,1.21-2.41,2-3.5-3.04.43-5.87,1.59-8.5,3.5-1.26-.35-1.59-1.02-1-2,13.38-10.39,23.38-23.39,30-39,7.85-11.33,9.85-10.66,6,2,2.24-4.42,5.74-7.09,10.5-8-1.09,4.29-1.59,8.63-1.5,13,2.5-3.17,5-6.33,7.5-9.5,1.29-.49,2.63-.66,4-.5-.84,4.33-1.34,8.67-1.5,13,2.29-4.63,5.63-8.29,10-11,1.5.17,2.33,1,2.5,2.5-1.54,3.04-2.04,6.2-1.5,9.5,2.37-3.36,5.03-6.36,8-9,.77.15,1.44.48,2,1-.56,5.43,1.77,8.43,7,9,6.1-1.38,12.27-2.38,18.5-3,7.01.17,14.01,0,21-.5-1.65-.61-3.32-1.11-5-1.5-11.33-.9-22.66-1.07-34-.5-1.05-1.39-1.22-2.89-.5-4.5,2.05-2.92,4.21-5.76,6.5-8.5-3.75.86-7.42,2.36-11,4.5-.33-.5-.67-1-1-1.5,1.11-2.11,2.61-3.95,4.5-5.5.69-.83.52-1.5-.5-2-4.02,2.85-8.36,4.85-13,6,.7-3.36,1.86-6.36,3.5-9-3.67,2.33-7.33,4.67-11,7-.69-.52-1.19-1.19-1.5-2,1.21-1.92,2.54-3.76,4-5.5-3.78.88-7.45,2.38-11,4.5-1.08-.87-1.25-1.87-.5-3l4.5-4.5c-3.22.68-6.39,1.85-9.5,3.5-.5-.33-1-.67-1.5-1,13.96-10.98,29.62-18.81,47-23.5,14.15-3.73,28.49-6.23,43-7.5,17.86-.55,33.03,5.45,45.5,18,3.76,5.02,6.6,10.52,8.5,16.5,7.67.33,15.33.67,23,1,3.36,1.12,6.52,2.62,9.5,4.5,1.53,4.21,1.87,8.54,1,13-3.14,12.62-9.14,23.62-18,33-7.3,8.3-14.97,16.3-23,24,7.1,26.89.27,49.39-20.5,67.5-19.47,13.46-39.47,26.12-60,38-8.67,7.33-17.33,14.67-26,22-14.51,9.38-30.18,12.04-47,8-10.18-3.84-18.68-10.01-25.5-18.5-7.28,3.81-14.95,6.48-23,8-6.21-.2-7.05-2.37-2.5-6.5-6.3.19-12.64.36-19,.5.64-3.49,2.64-5.99,6-7.5-6.98.33-13.98.33-21,0-.86-.69-1.52-1.52-2-2.5,2.88-3.05,6.22-5.55,10-7.5-6.67-.33-13.33-.67-20-1-2.85-.88-3.51-2.55-2-5,2.52-1.34,5.19-2.17,8-2.5.79-.28,1.46-.78,2-1.5-2.65-.5-5.31-.66-8-.5-4.1.79-7.43-.38-10-3.5,2.57-2.09,5.24-3.92,8-5.5.54-.06.88-.39,1-1-4.28-.99-8.62-1.33-13-1-1.95-.75-2.78-2.09-2.5-4,1.8-1.82,3.97-2.98,6.5-3.5-4.12-.7-7.62-2.54-10.5-5.5-.62-.95-.45-1.78.5-2.5,6.67-1,6.67-2,0-3-1.88-1.1-3.55-2.43-5-4,.14-.77.48-1.44,1-2,2.54-.14,4.88-.81,7-2-2.45-.73-4.78-1.73-7-3-.84-1.01-1.17-2.18-1-3.5,3.02.17,6.02,0,9-.5-3.79-1.73-7.46-3.73-11-6-.84-1.01-1.17-2.18-1-3.5,7.59-.23,7.76-1.9.5-5-.98-1.26-1.32-2.59-1-4,3.08-.47,6.25-.64,9.5-.5-4.66-2.82-8-6.65-10-11.5,2.94.22,5.77.88,8.5,2,.83-.33,1.67-.67,2.5-1-4.81-2.47-8.14-6.13-10-11,2.99.64,5.99.8,9,.5-2.31-2.06-4.47-4.23-6.5-6.5-.48-.95-.65-1.95-.5-3,2.68.51,5.34.68,8,.5-3.11-2.44-5.45-5.44-7-9,.11-1.28.78-2.11,2-2.5,1.83,1.43,3.83,1.93,6,1.5-4.66-3.15-5.99-7.31-4-12.5-1.1-1.89-2.44-3.55-4-5-2.18,12.72-4.68,25.39-7.5,38-4.63,33.82,3.37,64.15,24,91,11.97,14.3,27.14,23.14,45.5,26.5-7.41,1.77-14.74,1.11-22-2-30.91-18.27-48.41-45.43-52.5-81.5-.67-9.67-.67-19.33,0-29,1.68-10.93,3.85-21.76,6.5-32.5-1.15-4.16-2.49-8.33-4-12.5.26-2.53,1.1-4.86,2.5-7,2.35-2.18,4.52-4.52,6.5-7-7.08-5.24-9.08-11.9-6-20-5-11.86-1-18.36,12-19.5,1.77-6.53,5.1-12.2,10-17,4.6-2.87,9.6-4.03,15-3.5,1.82-11.52,8.15-15.52,19-12,1.69,2.05,2.86,4.39,3.5,7-.04,10.88,3.29,20.54,10,29,3.33,7,3.33,14,0,21-6.33,9-12.67,18-19,27-6.65,11.27-9.49,23.44-8.5,36.5-1.04,25.58,8.63,45.92,29,61,7.1,3.2,14.43,5.7,22,7.5,1.27-.07,2.44-.4,3.5-1,.67-2.33.67-4.67,0-7-2.33-1.67-4.33-3.67-6-6-3.23-9.46-8.23-17.8-15-25-4.19-7.83-5.53-16.17-4-25,2.36-7.8,3.69-15.8,4-24,.9-4.04,2.57-7.71,5-11,10-8.67,19.33-18,28-28,4.52-7.04,8.52-14.38,12-22,4.63-5.63,9.63-10.97,15-16,5.83-15.84,14.33-30.01,25.5-42.5,4.56-3.75,9.56-4.41,15-2,6.3,4.97,11.13,11.14,14.5,18.5.89.58,1.89.91,3,1,23.13-7.82,46.3-7.99,69.5-.5,5.65,2.75,10.49,6.58,14.5,11.5,6.26,6.85,11.26,14.51,15,23,.67,2,.67,4,0,6-7.92-17.88-21.42-29.05-40.5-33.5-41.38-2.24-79.05,8.43-113,32-3.54,3.2-6.7,6.7-9.5,10.5-4.16,8.99-8.82,17.65-14,26-8.36,8.7-17.03,17.03-26,25-1.09,1.58-1.93,3.24-2.5,5Z"/>
  <path class="st2" d="M258.5,120.5c8.86,1.73,12.86,7.07,12,16-1.06-2.15-2.56-3.81-4.5-5-.77.15-1.44.48-2,1-.68,2.4-1.52,4.73-2.5,7-.88-2.82-2.05-5.49-3.5-8-2.17,2.33-3.83,5-5,8-1.09-2.54-1.76-5.21-2-8-4.92,7.5-9.58,15.17-14,23,3.9-13.48,11.07-24.82,21.5-34Z"/>
  <path class="st2" d="M118.5,152.5c8.29-.94,14.79,2.06,19.5,9,1.38,9.03-1.45,16.37-8.5,22-3.93-7.89-9.09-8.89-15.5-3-1.39-1.05-2.39-2.38-3-4-4.02-10.33-1.52-18.33,7.5-24Z"/>
  <path class="st2" d="M376.5,183.5c10.05-.26,19.39,2.24,28,7.5-4.14-1.35-8.48-1.68-13-1,3.51,2.34,6.51,5.17,9,8.5-3.22-.55-6.55-.55-10,0,1.89,3.44,2.89,7.11,3,11-5.02-2.84-10.36-5.18-16-7,2-1.33,3.67-3,5-5-1.5-.33-3-.67-4.5-1-3.27.41-6.43.91-9.5,1.5,3.13-1.63,6.13-3.47,9-5.5,1.21-.77,1.21-1.61,0-2.5-6.15.37-12.15,1.37-18,3,5.73-3.19,11.4-6.36,17-9.5Z"/>
  <path class="st2" d="M115.5,184.5c.54.06.88.39,1,1-.81,1.31-1.81,2.48-3,3.5,1.33,1,2.67,2,4,3-1.29.49-2.63.66-4,.5-.2,1.89.46,3.39,2,4.5-4,2-4,4,0,6-6.25.75-6.58,2.58-1,5.5-6.31,1.63-6.31,3.8,0,6.5-5.77.42-6.44,2.42-2,6-1.63.49-3.3.66-5,.5-.12,1.98.55,3.65,2,5-.33.33-.67.67-1,1-5.7-15.55-3.37-29.88,7-43Z"/>
  <path class="st2" d="M147.5,166.5c1.64,1.25,2.8,2.92,3.5,5,.58,4.33,1.08,8.66,1.5,13h-3v8c-1.64-.21-3.14.12-4.5,1-.33,2-.67,4-1,6-2.94.44-4.77,2.11-5.5,5-.59-.21-1.09-.54-1.5-1-1.83,1.66-3.16,3.66-4,6-.88-4.66-.05-8.99,2.5-13,1,.67,2,1.33,3,2,.97-2.24,1.31-4.58,1-7h5c.26-2.29-.08-4.46-1-6.5,1.63-.49,3.3-.66,5-.5-.37-3.07-1.04-6.07-2-9h3c-.26-3.1-.92-6.1-2-9Z"/>
  <path class="st7" d="M308.5,197.5c1.68.39,3.35.89,5,1.5-6.99.5-13.99.67-21,.5,5.33-.67,10.67-1.33,16-2Z"/>
  <path class="st2" d="M369.5,211.5c4.68-.17,9.35,0,14,.5,3.61,2.62,3.61,3.45,0,2.5-.33.5-.67,1-1,1.5,1.62,6.97.62,7.31-3,1-1.52-1.01-3.19-1.51-5-1.5,1.05,3.29,1.55,6.62,1.5,10-2.45-4.78-5.95-8.62-10.5-11.5,1.57-.61,2.9-1.44,4-2.5Z"/>
  <path class="st2" d="M338.5,255.5c.32,4.86-.01,9.53-1,14-1.93-6.36-5.26-11.86-10-16.5-.95-.48-1.95-.65-3-.5,1.82,5.87,2.32,11.87,1.5,18-2.25-4.17-4.75-8.17-7.5-12-1.35-1.45-3.02-2.12-5-2,.77,5.32.93,10.65.5,16-3.62-9.94-9.79-17.78-18.5-23.5,4.86-.49,9.19.84,13,4,2.42.99,4.09.32,5-2-1.45-3.07-3.29-5.9-5.5-8.5-.75-1.13-.58-2.13.5-3,5.12,3.23,10.45,5.89,16,8-1.51-5.36-3.85-10.36-7-15,.33-.33.67-.67,1-1,5.54,4.56,11.54,8.22,18,11-2.8-5.93-5.3-11.93-7.5-18,4.17,3.5,8.33,7,12.5,10.5.95.48,1.95.65,3,.5-1.18-6.38-3.52-12.38-7-18,.5-1.02,1.17-1.19,2-.5,11.51,10.42,18.17,22.42,20,36-2.85-5.36-7.18-8.53-13-9.5,1.8,5.21,2.64,10.54,2.5,16-1.89-3.94-4.39-7.44-7.5-10.5-1.44-.78-2.78-.61-4,.5.85,1.91,1.18,3.91,1,6Z"/>
  <path class="st2" d="M357.5,217.5c5.06-.78,8.56,1.22,10.5,6,1.04,5.89.37,11.56-2,17-4.17-6.33-8.33-12.67-12.5-19,1.05-1.72,2.38-3.05,4-4Z"/>
  <path class="st2" d="M269.5,229.5c2.59.75,4.42,2.42,5.5,5,.8,1.76.63,3.43-.5,5-6.9.96-13.73,2.29-20.5,4-5.14-1.41-6.81-4.74-5-10l3-3c4.4,8.06,10.07,9.06,17,3,.49-1.29.66-2.63.5-4Z"/>
  <path class="st2" d="M177.5,240.5h1c-1.48,11.1.52,21.6,6,31.5,1.7.96,3.53,1.46,5.5,1.5,10.9-1.26,19.57-6.26,26-15,3.72-8.85,1.55-15.52-6.5-20,1.29.24,2.29-.1,3-1,2.47-.3,4.64-1.3,6.5-3,.5.33,1,.67,1.5,1-1.69,7.07-.02,7.9,5,2.5,1.33-.67,2.67-.67,4,0,5.07,6.5,3.4,9.67-5,9.5.97,2.14,2.64,3.3,5,3.5,4.33.67,8.67.67,13,0,13.46-3.38,27.12-4.38,41-3,5.43,1.8,9.93,4.97,13.5,9.5,6.39,13.68,5.73,27.01-2,40-4.72,5.72-9.05,11.72-13,18-3.01,12.02-7.01,23.68-12,35-2.42,3.84-5.09,7.51-8,11-7.41,9.95-17.24,15.62-29.5,17-8.1-.64-15.76-2.81-23-6.5-7.33-4.14-12.16-10.31-14.5-18.5-1.49-11.29-1.83-22.63-1-34,.41-.46.91-.79,1.5-1,.83,10.65,1.33,21.32,1.5,32,9.51,18.51,24.68,26.01,45.5,22.5,6.74-3.4,12.24-8.23,16.5-14.5,13.92-17.34,19.58-37,17-59-6.02-14.59-16.85-20.76-32.5-18.5-8,4.67-16,9.33-24,14-16.07,6.5-26.74,1.33-32-15.5-2.11-1.35-3.95-1.02-5.5,1-5.95,9.86-9.45,8.86-10.5-3,1.03-6.44,2.53-12.77,4.5-19,.17-6.18.67-12.18,1.5-18Z"/>
  <path class="st6" d="M209.5,238.5c8.05,4.48,10.22,11.15,6.5,20-6.43,8.74-15.1,13.74-26,15-1.97-.04-3.8-.54-5.5-1.5-5.48-9.9-7.48-20.4-6-31.5,1.39-2.21,3.39-3.71,6-4.5,8.56-1.11,16.89-.28,25,2.5Z"/>
  <path class="st1" d="M265.5,255.5v6c1.29.24,2.29-.1,3-1,4.71-.33,9.38,0,14,1-.21.59-.54,1.09-1,1.5-5.98,1-11.98,1.33-18,1-.88-1.36-1.21-2.86-1-4.5-4.87,1.1-9.54,2.77-14,5-2.48-1.18-3.48-3.18-3-6-4.05,1.77-8.21,3.43-12.5,5-1.75-1.6-2.91-3.6-3.5-6-3.46,1.81-6.96,3.48-10.5,5-.98-3.28-.15-5.95,2.5-8l2,2c2.93-2.42,6.1-3.08,9.5-2,.29,1.54.96,2.88,2,4,4.26-2.38,8.76-4.05,13.5-5-.45,2.48.22,4.48,2,6,4.48-1.74,8.82-3.74,13-6,1.02.35,1.69,1.02,2,2Z"/>
  <path class="st8" d="M265.5,255.5c.47,2.03,1.47,3.7,3,5-.71.9-1.71,1.24-3,1v-6Z"/>
  <path class="st0" d="M215.5,265.5c4.35-.17,8.68,0,13,.5.59,1.51,1.26,3.01,2,4.5,3.63-2.64,7.63-3.47,12-2.5.84,1.01,1.17,2.18,1,3.5,3.97-.98,7.97-1.98,12-3,3.01-.32,4.35,1.01,4,4,6-.63,12-.8,18-.5.46.41.79.91,1,1.5-7.58,1.57-15.25,2.23-23,2v-3c-3.85,1.17-7.69,2.51-11.5,4-2.64-.6-3.8-2.27-3.5-5-4.27.88-8.44,2.21-12.5,4-.77-.14-1.44-.48-2-1-.49-1.97-.66-3.97-.5-6-4.01.5-8.01.67-12,.5,1.32-.82,1.99-1.98,2-3.5Z"/>
  <path class="st4" d="M338.5,255.5c1.15,5.15,1.32,10.48.5,16-.72-.54-1.22-1.21-1.5-2,.99-4.47,1.32-9.14,1-14Z"/>
  <path class="st10" d="M207.5,271.5c3.31.55,6.65,1.05,10,1.5,1.73,1.79,2.4,3.96,2,6.5,3.4-.32,6.73.01,10,1-.33.33-.67.67-1,1-4.85,1.65-9.85,2.32-15,2,.17-2.36.51-4.69,1-7-3.7.22-7.37.39-11,.5,1.94-1.43,3.27-3.27,4-5.5Z"/>
  <path class="st2" d="M179.5,296.5c5.69.51,10.36,3.01,14,7.5-.96,2.89-2.29,5.56-4,8-.67.67-1.33.67-2,0-3.86-4.55-6.52-9.71-8-15.5Z"/>
  <path class="st2" d="M241.5,297.5c2.57,5.13,2.4,10.46-.5,16-1.02,1.19-2.19,2.19-3.5,3-2.87-3.03-5.54-6.2-8-9.5,3.79-3.4,7.79-6.57,12-9.5Z"/>
  <path class="st2" d="M210.5,320.5c5.6.13,10.6,1.96,15,5.5,2.67.67,5.33.67,8,0,7.78-3.58,15.78-4.24,24-2,1.8.64,3.14,1.8,4,3.5-3.32,9.31-8.15,17.65-14.5,25-3.49-2.15-6.32-4.99-8.5-8.5-6.39-1.94-11.22-.11-14.5,5.5-1.71-2.92-3.54-5.75-5.5-8.5-3.59-.79-7.09-.62-10.5.5-.67-5.33-.67-10.67,0-16,.37-1.95,1.2-3.62,2.5-5Z"/>
  <path class="st5" d="M108.5,334.5c4.38-.33,8.72,0,13,1-.12.61-.46.94-1,1-4-.67-8-1.33-12-2Z"/>
  <path class="st2" d="M211.5,345.5c1.25.08,2.08.74,2.5,2,.67,4.33.67,8.67,0,13-5.49-4.52-6.32-9.52-2.5-15Z"/>
  <path class="st3" d="M122.5,345.5c2.69-.16,5.35,0,8,.5-.54.72-1.21,1.22-2,1.5-2-.67-4-1.33-6-2Z"/>
  <path class="st2" d="M231.5,349.5c4.11,1.94,7.11,5.11,9,9.5-2.57,3.14-5.9,4.64-10,4.5-.27-4.76.06-9.43,1-14Z"/>
</svg>